<?xml version="1.0" encoding="UTF-8"?>
<svg version="1.1" xmlns="http://www.w3.org/2000/svg" width="512" height="512">
<path d="M0 0 C168.96 0 337.92 0 512 0 C512 168.96 512 337.92 512 512 C343.04 512 174.08 512 0 512 C0 343.04 0 174.08 0 0 Z " fill="#000000" transform="translate(0,0)"/>
<path d="M0 0 C1.91270375 8.28919668 2.7736558 16.60225035 3.5625 25.0625 C3.81341242 27.67842282 4.0647051 30.2943092 4.31640625 32.91015625 C4.43258301 34.12977051 4.54875977 35.34938477 4.66845703 36.60595703 C5.07252451 40.74244163 5.52515387 44.87109986 6 49 C6.33 49 6.66 49 7 49 C7.33567724 71.22183333 7.31380528 92.96651262 4 115 C3.88253418 115.83096191 3.76506836 116.66192383 3.64404297 117.51806641 C1.52654999 132.32202389 -1.62759121 151.36571131 -13.1328125 161.96484375 C-21.66231186 168.04248354 -30.32851034 169.51780163 -40.625 169.375 C-41.68605957 169.36484863 -42.74711914 169.35469727 -43.84033203 169.34423828 C-52.23454401 169.17934513 -59.89489273 168.31200584 -68 166 C-69.04631592 165.70198486 -69.04631592 165.70198486 -70.11376953 165.39794922 C-80.29065048 162.42830199 -89.66591558 158.48477701 -99.03515625 153.5390625 C-101.59117189 151.92321222 -101.59117189 151.92321222 -103 152 C-87.88284547 171.44144696 -69.46716334 182.81185988 -46 190 C-45.67 192.97 -45.34 195.94 -45 199 C-43.35 198.67 -41.7 198.34 -40 198 C-38.99746446 199.26883405 -37.99819431 200.54024787 -37 201.8125 C-36.3503125 202.62976563 -35.700625 203.44703125 -35.03125 204.2890625 C-33 207 -33 207 -31.28125 209.8359375 C-25.90151629 218.44823051 -19.64637309 221.49604784 -10 224 C-8.37449659 224.31947471 -6.74671112 224.62748913 -5.1171875 224.92578125 C0.03613272 225.91070113 4.66929994 227.60896579 9.5 229.625 C10.35948242 229.97763916 11.21896484 230.33027832 12.10449219 230.69360352 C14.74180495 231.78312823 17.37168144 232.88897418 20 234 C20.79599609 234.33338379 21.59199219 234.66676758 22.41210938 235.01025391 C33.37909247 239.62902328 43.78097886 244.90529893 54 251 C54.97324219 251.57363281 55.94648438 252.14726562 56.94921875 252.73828125 C76.71861707 264.83080373 91.89293224 279.09849591 98 302 C96.80503906 303.17755859 96.80503906 303.17755859 95.5859375 304.37890625 C88.93448141 310.87814136 88.93448141 310.87814136 82.75 317.8125 C79.54470319 321.66439848 75.82553141 324.77981369 72 328 C70.98223562 328.87924005 69.96537039 329.75952157 68.94921875 330.640625 C62.54510349 336.16828726 56.07659996 341.34383052 49 346 C48.38640625 346.40718262 47.7728125 346.81436523 47.140625 347.23388672 C42.13258399 350.55147496 37.08477486 353.80131907 32 357 C31.41766602 357.36770508 30.83533203 357.73541016 30.23535156 358.11425781 C-24.6109582 392.30714549 -95.59073186 399.53911681 -157.64501953 385.33349609 C-165.96022001 383.34600804 -173.98598783 380.99475891 -182 378 C-183.17949219 377.59652344 -184.35898438 377.19304687 -185.57421875 376.77734375 C-194.24459353 373.76268988 -202.5255031 370.00220984 -210.8125 366.0625 C-211.85003418 365.57257568 -212.88756836 365.08265137 -213.95654297 364.57788086 C-220.07154114 361.62273708 -225.82451366 358.3616393 -231.50341797 354.63549805 C-234.07470102 352.95106375 -236.68613977 351.34685562 -239.3125 349.75 C-246.25864728 345.31985777 -252.63488645 340.21583293 -259 335 C-259.58185059 334.52401367 -260.16370117 334.04802734 -260.76318359 333.55761719 C-270.04442522 325.91180239 -278.72791941 317.72796188 -287 309 C-287.87785156 308.12722412 -287.87785156 308.12722412 -288.7734375 307.23681641 C-292.99375025 302.80621733 -292.99375025 302.80621733 -293.0234375 298.9765625 C-292.68570313 297.99429687 -292.34796875 297.01203125 -292 296 C-291.66226563 294.93523437 -291.32453125 293.87046875 -290.9765625 292.7734375 C-287.23199279 283.35790096 -282.27561567 276.99255857 -275 270 C-274.02933594 269.03513672 -274.02933594 269.03513672 -273.0390625 268.05078125 C-247.39945982 244.03464686 -210.33826678 232.70144858 -177.94067383 221.078125 C-176.97025146 220.72234375 -175.9998291 220.3665625 -175 220 C-174.10450439 219.69690918 -173.20900879 219.39381836 -172.28637695 219.08154297 C-169.69195204 217.85428164 -168.76929965 216.82424689 -167.2109375 214.4453125 C-166.74429688 213.74792969 -166.27765625 213.05054688 -165.796875 212.33203125 C-165.32765625 211.60371094 -164.8584375 210.87539063 -164.375 210.125 C-163.4250136 208.68975028 -162.4745081 207.254844 -161.5234375 205.8203125 C-160.13019123 203.71263316 -158.73935101 201.60346765 -157.3515625 199.4921875 C-156.90554687 198.99976563 -156.45953125 198.50734375 -156 198 C-155.01 198 -154.02 198 -153 198 C-152.76695635 185.4032771 -152.58994309 172.8070778 -152.48187828 160.2086277 C-152.42997703 154.35672787 -152.35973305 148.50631671 -152.24560547 142.65527344 C-152.13589944 136.99463948 -152.07694112 131.3354251 -152.05122757 125.67380905 C-152.03293542 123.52815816 -151.99722004 121.38257348 -151.94269943 119.23753738 C-151.5867557 104.63519469 -153.7376386 95.14800263 -161.82463455 82.94062424 C-167.15377244 74.14178285 -169.69166274 63.16309012 -168 53 C-166.58564481 49.13946467 -164.95903848 44.95903848 -162 42 C-156.40628346 41.62076498 -152.80259629 41.79826914 -148 45 C-140.01327857 52.80098372 -139.48084098 62.2722719 -139 73 C-135.37 72.67 -131.74 72.34 -128 72 C-128.32613281 71.14019531 -128.65226563 70.28039062 -128.98828125 69.39453125 C-134.43744275 54.65446901 -137.17833343 40.7578163 -137 25 C-127.82792174 20.6239076 -120.40528253 19.42574071 -110.31610107 19.85214233 C-92.56042437 20.56415133 -75.52095305 18.7532177 -58 16 C-57.13729492 15.8669043 -56.27458984 15.73380859 -55.38574219 15.59667969 C-50.88498557 14.88355238 -46.44553002 13.99836055 -42 13 C-41.25492188 12.83951172 -40.50984375 12.67902344 -39.7421875 12.51367188 C-27.17958696 9.77696388 -15.53934741 5.76474603 -3.74560547 0.6550293 C-2 0 -2 0 0 0 Z " fill="#3B3277" transform="translate(354,120)"/>
<path d="M0 0 C1.91270375 8.28919668 2.7736558 16.60225035 3.5625 25.0625 C3.81341242 27.67842282 4.0647051 30.2943092 4.31640625 32.91015625 C4.43258301 34.12977051 4.54875977 35.34938477 4.66845703 36.60595703 C5.07252451 40.74244163 5.52515387 44.87109986 6 49 C6.33 49 6.66 49 7 49 C7.33567724 71.22183333 7.31380528 92.96651262 4 115 C3.82380127 116.24644287 3.82380127 116.24644287 3.64404297 117.51806641 C1.52654999 132.32202389 -1.62759121 151.36571131 -13.1328125 161.96484375 C-21.66231186 168.04248354 -30.32851034 169.51780163 -40.625 169.375 C-41.68605957 169.36484863 -42.74711914 169.35469727 -43.84033203 169.34423828 C-52.23454401 169.17934513 -59.89489273 168.31200584 -68 166 C-69.04631592 165.70198486 -69.04631592 165.70198486 -70.11376953 165.39794922 C-80.29065048 162.42830199 -89.66591558 158.48477701 -99.03515625 153.5390625 C-101.59117189 151.92321222 -101.59117189 151.92321222 -103 152 C-87.88284547 171.44144696 -69.46716334 182.81185988 -46 190 C-45.505 194.455 -45.505 194.455 -45 199 C-43.35 198.67 -41.7 198.34 -40 198 C-34.30094181 205.09175408 -29.12041632 212.48773389 -24 220 C-26.59572248 222.92804681 -29.57431609 224.65496695 -32.9375 226.625 C-34.27145139 227.4130172 -35.60472206 228.20218727 -36.9375 228.9921875 C-38.09958984 229.68006348 -38.09958984 229.68006348 -39.28515625 230.38183594 C-44.39476285 233.42738203 -49.47578293 236.52033904 -54.55935669 239.60906982 C-56.4055379 240.73058374 -58.25239799 241.85097257 -60.09936523 242.97119141 C-60.68694107 243.32803009 -61.27451691 243.68486877 -61.87989807 244.05252075 C-63.57509718 245.08145644 -65.27166097 246.10814273 -66.96826172 247.13476562 C-69.56875396 248.73468194 -72.11435038 250.39369949 -74.66015625 252.078125 C-75.76230469 252.71234375 -76.86445313 253.3465625 -78 254 C-81.94038746 252.68653751 -82.30110887 251.20111085 -84.28515625 247.609375 C-84.89810547 246.50722656 -85.51105469 245.40507812 -86.14257812 244.26953125 C-86.45783447 243.69154785 -86.77309082 243.11356445 -87.09790039 242.51806641 C-88.05380498 240.76593757 -89.02391858 239.0215852 -89.99414062 237.27734375 C-92.58453019 232.58789247 -95.10717284 228.02068231 -97 223 C-97.66 223 -98.32 223 -99 223 C-99.26280762 223.86512207 -99.52561523 224.73024414 -99.79638672 225.62158203 C-101.00574746 229.01613254 -102.48209671 231.92297055 -104.2578125 235.0546875 C-104.88300781 236.16328125 -105.50820312 237.271875 -106.15234375 238.4140625 C-106.80332031 239.55617188 -107.45429688 240.69828125 -108.125 241.875 C-108.79084477 243.05181177 -109.45621396 244.22889276 -110.12109375 245.40625 C-111.74274265 248.27351326 -113.36917199 251.13795084 -115 254 C-118.89678782 252.80641779 -122.21133298 251.45683468 -125.65234375 249.27734375 C-126.92936157 248.47635254 -126.92936157 248.47635254 -128.23217773 247.65917969 C-129.12493408 247.09102539 -130.01769043 246.52287109 -130.9375 245.9375 C-132.82236835 244.75303326 -134.70778803 243.56944341 -136.59375 242.38671875 C-137.97626953 241.51732666 -137.97626953 241.51732666 -139.38671875 240.63037109 C-142.87488446 238.45417802 -146.40052448 236.34556292 -149.9375 234.25 C-157.07216801 230.00840067 -164.04696332 225.53179432 -171 221 C-169.00785166 215.57623469 -165.9242251 211.34247891 -162.5625 206.6875 C-161.97662109 205.85154297 -161.39074219 205.01558594 -160.78710938 204.15429688 C-160.21927734 203.36474609 -159.65144531 202.57519531 -159.06640625 201.76171875 C-158.55021729 201.03944092 -158.03402832 200.31716309 -157.50219727 199.57299805 C-157.00647217 199.05390869 -156.51074707 198.53481934 -156 198 C-155.01 198 -154.02 198 -153 198 C-152.76695635 185.4032771 -152.58994309 172.8070778 -152.48187828 160.2086277 C-152.42997703 154.35672787 -152.35973305 148.50631671 -152.24560547 142.65527344 C-152.13589944 136.99463948 -152.07694112 131.3354251 -152.05122757 125.67380905 C-152.03293542 123.52815816 -151.99722004 121.38257348 -151.94269943 119.23753738 C-151.5867557 104.63519469 -153.7376386 95.14800263 -161.82463455 82.94062424 C-167.15377244 74.14178285 -169.69166274 63.16309012 -168 53 C-166.58564481 49.13946467 -164.95903848 44.95903848 -162 42 C-156.40628346 41.62076498 -152.80259629 41.79826914 -148 45 C-140.01327857 52.80098372 -139.48084098 62.2722719 -139 73 C-135.37 72.67 -131.74 72.34 -128 72 C-128.48919922 70.71029297 -128.48919922 70.71029297 -128.98828125 69.39453125 C-134.43744275 54.65446901 -137.17833343 40.7578163 -137 25 C-127.82792174 20.6239076 -120.40528253 19.42574071 -110.31610107 19.85214233 C-92.56042437 20.56415133 -75.52095305 18.7532177 -58 16 C-57.13729492 15.8669043 -56.27458984 15.73380859 -55.38574219 15.59667969 C-50.88498557 14.88355238 -46.44553002 13.99836055 -42 13 C-41.25492188 12.83951172 -40.50984375 12.67902344 -39.7421875 12.51367188 C-27.17958696 9.77696388 -15.53934741 5.76474603 -3.74560547 0.6550293 C-2 0 -2 0 0 0 Z " fill="#FC937E" transform="translate(354,120)"/>
<path d="M0 0 C8.49024274 5.54760179 13.17770311 13.39136939 15.4921875 23.1015625 C18.0059842 37.44954058 14.3574455 54.98199337 6 67 C5.03090698 67.69536865 5.03090698 67.69536865 4.04223633 68.40478516 C0.86763193 70.81973063 -1.55464112 72.97365097 -2.44134521 77.00808716 C-3.10946812 83.0676425 -2.92917362 89.16485805 -2.8125 95.25 C-2.77758693 98.88031863 -2.76483932 102.51014692 -2.76953125 106.140625 C-2.77026642 107.00860718 -2.77100159 107.87658936 -2.77175903 108.77087402 C-2.86669134 117.53324113 -4.00373613 125.6087068 -9 133 C-9.66 133.33 -10.32 133.66 -11 134 C-11.71428929 127.36164571 -12.4261206 120.72303118 -13.13623047 114.08422852 C-13.37817481 111.82505296 -13.62068516 109.56593794 -13.86376953 107.30688477 C-14.21274688 104.06281979 -14.55969893 100.81854369 -14.90625 97.57421875 C-15.0156189 96.56163498 -15.12498779 95.54905121 -15.2376709 94.50578308 C-15.33777466 93.56503433 -15.43787842 92.62428558 -15.54101562 91.6550293 C-15.62984009 90.82674118 -15.71866455 89.99845306 -15.81018066 89.14506531 C-16 87 -16 87 -16 84 C-16.91136719 84.43570313 -17.82273437 84.87140625 -18.76171875 85.3203125 C-43.21434422 96.68466778 -69.47826675 100.54028513 -96 104 C-96.81976318 104.11400146 -97.63952637 104.22800293 -98.48413086 104.34545898 C-103.67456446 104.98159257 -108.80428656 105.03328726 -114.02734375 104.95703125 C-114.74795486 104.94694031 -115.46856598 104.93684937 -116.21101379 104.92645264 C-119.20544787 104.8806936 -122.19934393 104.83191465 -125.19311523 104.75317383 C-133.67150841 104.54179092 -141.06377449 104.65640538 -148.99829102 108.1315918 C-151 109 -151 109 -153 109 C-151.68241372 125.76455173 -149.20335467 141.27006494 -143 157 C-146.96 157 -150.92 157 -155 157 C-155.15855469 155.7934375 -155.31710938 154.586875 -155.48046875 153.34375 C-157.24066319 139.85111561 -157.24066319 139.85111561 -165.125 129.0625 C-168.21056206 127.31401484 -170.71194578 126.8805237 -174.1875 126.9375 C-175.445625 126.958125 -176.70375 126.97875 -178 127 C-183.56583788 135.80595064 -184.46353417 143.38482555 -182.21875 153.53125 C-179.20962726 163.59031746 -174.19721047 172.38677248 -168.83862305 181.35864258 C-168 183 -168 183 -168 185 C-171.05310682 185.53429369 -173.21684269 185.42421021 -175.96875 183.93359375 C-190.50647495 172.77868557 -194.08455894 145.05950284 -198 128 C-198.23283691 126.98599121 -198.46567383 125.97198242 -198.70556641 124.92724609 C-203.23390578 104.82755942 -207.05473104 84.82760646 -195.79296875 66.12109375 C-194.76871729 64.02371849 -194.76871729 64.02371849 -195.6015625 61.9140625 C-199.62226805 56.41086216 -206.78811208 53.37902091 -213 51 C-209.23435432 48.48956954 -206.2340048 48.69752139 -201.875 48.75 C-200.73236694 48.75580078 -200.73236694 48.75580078 -199.56665039 48.76171875 C-194.13433799 48.84514127 -189.23587987 49.47683495 -184 51 C-185.10544202 45.10430923 -187.39453913 42.00444813 -191.5390625 37.69921875 C-193 36 -193 36 -193 34 C-185.35742147 33.519838 -179.49928602 34.07498047 -172.47265625 37.22265625 C-168.12333356 38.58997887 -165.53489771 37.25579466 -161.50390625 35.328125 C-160.18878995 34.63791499 -158.87505504 33.94506835 -157.5625 33.25 C-130.90153717 19.66298906 -101.01371479 16.02559711 -71.5 14.0625 C-49.47705326 12.58756581 -28.53664417 9.00387838 -8.27734375 0.07421875 C-4.81809314 -1.05962382 -3.37128738 -1.25073056 0 0 Z " fill="#3B3276" transform="translate(370,36)"/>
<path d="M0 0 C5.72210596 1.86763181 11.37661751 3.85289032 17 6 C16.41774658 6.71506714 16.41774658 6.71506714 15.82373047 7.44458008 C12.01964253 12.28513224 9.34433905 16.95832838 7.125 22.6875 C6.62746216 23.95207031 6.62746216 23.95207031 6.11987305 25.2421875 C0.23409551 40.77144669 -3.58211134 57.07247369 -7.5 73.1875 C-25.55205561 147.19324628 -25.55205561 147.19324628 -50 169 C-50.66 169 -51.32 169 -52 169 C-52.03092239 168.4072377 -52.06184479 167.8144754 -52.09370422 167.20375061 C-52.49664965 159.48982421 -52.90384011 151.77612562 -53.3125 144.0625 C-53.37902771 142.80394196 -53.44555542 141.54538391 -53.51409912 140.24868774 C-54.39838661 123.56896378 -55.36390665 106.89720297 -56.43060303 90.22821045 C-57.73518335 69.82228041 -58.62902771 49.44446739 -59 29 C-57.68 30.65 -56.36 32.3 -55 34 C-51.30808185 32.62546024 -48.04533317 30.94661965 -44.67578125 28.91015625 C-43.65532715 28.29567627 -42.63487305 27.68119629 -41.58349609 27.0480957 C-40.50406738 26.39284912 -39.42463867 25.73760254 -38.3125 25.0625 C-37.20213379 24.3924292 -36.09176758 23.7223584 -34.94775391 23.03198242 C-27.53030323 18.55062824 -20.1263997 14.04649451 -12.74731445 9.50219727 C-8.54268866 6.91737374 -4.29740491 4.42775472 0 2 C0 1.34 0 0.68 0 0 Z " fill="#6486ED" transform="translate(329,339)"/>
<path d="M0 0 C2.32973317 1.61810558 4.43961179 3.38854257 6.5859375 5.2421875 C8.16990071 6.31432587 9.77590548 7.35436472 11.3984375 8.3671875 C12.31753906 8.94984375 13.23664063 9.5325 14.18359375 10.1328125 C21.09109156 14.44441778 28.10740989 18.58164558 35.09863281 22.75537109 C37.44829032 24.15990724 39.79515711 25.56894984 42.140625 26.98046875 C42.83188477 27.39635254 43.52314453 27.81223633 44.23535156 28.24072266 C45.52141428 29.01471246 46.80723434 29.78910565 48.09277344 30.56396484 C51.29224006 32.48766844 51.29224006 32.48766844 54.5859375 34.2421875 C55.5759375 31.2721875 55.5759375 31.2721875 56.5859375 28.2421875 C56.9159375 28.2421875 57.2459375 28.2421875 57.5859375 28.2421875 C57.615436 32.01300386 57.63290114 35.78378981 57.6484375 39.5546875 C57.65681641 40.60720703 57.66519531 41.65972656 57.67382812 42.74414062 C57.69210075 48.68274239 57.439842 54.48465922 56.83764648 60.39086914 C56.25346617 67.00836853 56.18061033 73.6647053 55.98046875 80.30273438 C55.94308594 81.43904297 55.90570313 82.57535156 55.8671875 83.74609375 C55.83689453 84.75486572 55.80660156 85.7636377 55.77539062 86.80297852 C55.62280566 89.57290682 55.38731546 92.29501724 55.09741211 95.05200195 C54.58869259 99.96001992 54.3165945 104.85202351 54.12109375 109.78125 C54.04364861 111.58684091 53.96600467 113.3924233 53.88818359 115.19799805 C53.82954132 116.58938492 53.82954132 116.58938492 53.76971436 118.00888062 C53.0716847 134.46035402 52.19597268 150.85065917 50.5859375 167.2421875 C41.21790306 156.15974153 37.03312069 141.80766373 32.5859375 128.2421875 C32.23241211 127.1706543 31.87888672 126.09912109 31.51464844 124.99511719 C27.57176641 113.00889284 23.75064854 100.99716592 20.2734375 88.8671875 C9.49282971 43.13986783 9.49282971 43.13986783 -14.4140625 4.2421875 C-4.44091679 -1.3940742 -4.44091679 -1.3940742 0 0 Z " fill="#6486ED" transform="translate(184.4140625,339.7578125)"/>
<path d="M0 0 C8.04898296 1.56317268 15.85025683 3.98891072 23.375 7.25 C30.52437359 10.34162101 37.889145 12.80038748 45.25537109 15.32128906 C46.22555176 15.65354492 47.19573242 15.98580078 48.1953125 16.328125 C49.51039795 16.77526855 49.51039795 16.77526855 50.85205078 17.23144531 C53 18 53 18 55 19 C59.71995286 19.34739261 63.18056328 18.46183601 67.5859375 16.8046875 C68.20053329 16.57652847 68.81512909 16.34836945 69.448349 16.11329651 C71.42739608 15.3761831 73.40104923 14.62564048 75.375 13.875 C76.7355662 13.36631828 78.0964891 12.85858963 79.45776367 12.35180664 C85.05411185 10.2637788 90.63768454 8.14267006 96.21484375 6.00390625 C102.76137787 3.49824075 109.08099689 1.23553627 116 0 C121.69905819 7.09175408 126.87958368 14.48773389 132 22 C129.40427752 24.92804681 126.42568391 26.65496695 123.0625 28.625 C121.72854861 29.4130172 120.39527794 30.20218727 119.0625 30.9921875 C117.90041016 31.68006348 117.90041016 31.68006348 116.71484375 32.38183594 C111.60523715 35.42738203 106.52421707 38.52033904 101.44064331 41.60906982 C99.5944621 42.73058374 97.74760201 43.85097257 95.90063477 44.97119141 C95.31305893 45.32803009 94.72548309 45.68486877 94.12010193 46.05252075 C92.42490282 47.08145644 90.72833903 48.10814273 89.03173828 49.13476562 C86.43124604 50.73468194 83.88564962 52.39369949 81.33984375 54.078125 C79.68662109 55.02945313 79.68662109 55.02945313 78 56 C74.05961254 54.68653751 73.69889113 53.20111085 71.71484375 49.609375 C71.10189453 48.50722656 70.48894531 47.40507812 69.85742188 46.26953125 C69.54216553 45.69154785 69.22690918 45.11356445 68.90209961 44.51806641 C67.94619502 42.76593757 66.97608142 41.0215852 66.00585938 39.27734375 C63.41546981 34.58789247 60.89282716 30.02068231 59 25 C58.34 25 57.68 25 57 25 C56.73719238 25.86512207 56.47438477 26.73024414 56.20361328 27.62158203 C54.99425254 31.01613254 53.51790329 33.92297055 51.7421875 37.0546875 C50.80439453 38.71757812 50.80439453 38.71757812 49.84765625 40.4140625 C49.19667969 41.55617188 48.54570312 42.69828125 47.875 43.875 C47.20915523 45.05181177 46.54378604 46.22889276 45.87890625 47.40625 C44.25725735 50.27351326 42.63082801 53.13795084 41 56 C37.10321218 54.80641779 33.78866702 53.45683468 30.34765625 51.27734375 C29.49631104 50.74334961 28.64496582 50.20935547 27.76782227 49.65917969 C26.87506592 49.09102539 25.98230957 48.52287109 25.0625 47.9375 C23.17763165 46.75303326 21.29221197 45.56944341 19.40625 44.38671875 C18.48457031 43.80712402 17.56289062 43.2275293 16.61328125 42.63037109 C13.12511554 40.45417802 9.59947552 38.34556292 6.0625 36.25 C-1.07216801 32.00840067 -8.04696332 27.53179432 -15 23 C-13.70940058 19.45765856 -12.18892213 16.61039389 -9.9609375 13.57421875 C-9.38085938 12.77822266 -8.80078125 11.98222656 -8.203125 11.16210938 C-7.59984375 10.34548828 -6.9965625 9.52886719 -6.375 8.6875 C-5.76398438 7.85154297 -5.15296875 7.01558594 -4.5234375 6.15429688 C-3.02036533 4.09931539 -1.51245679 2.04807883 0 0 Z " fill="#F8E1DC" transform="translate(198,318)"/>
<path d="M0 0 C3.90520527 1.47257278 7.50274954 3.29536534 11.1875 5.25 C30.10421212 14.92063203 49.96091034 18.34323617 71 19 C71 19.33 71 19.66 71 20 C67.04 20 63.08 20 59 20 C59 26.6 59 33.2 59 40 C35.04950595 34.67766799 14.1930103 21.10316961 0 1 C0 0.67 0 0.34 0 0 Z " fill="#43203A" transform="translate(249,270)"/>
<path d="M0 0 C0.66 0 1.32 0 2 0 C10.91649299 13.64106681 17.42093287 24.42592111 15 41 C10.13924453 39.29294897 5.8994658 36.69534093 1.5 34.0625 C0.75363281 33.61970703 0.00726563 33.17691406 -0.76171875 32.72070312 C-4.51477955 30.4921157 -8.25912426 28.24897887 -12 26 C-11.59328021 19.72191501 -8.48585472 14.96057218 -5.4375 9.625 C-4.91736328 8.69816406 -4.39722656 7.77132813 -3.86132812 6.81640625 C-2.58212166 4.53965346 -1.29487762 2.26786477 0 0 Z " fill="#231B49" transform="translate(255,343)"/>
<path d="M0 0 C0 0.33 0 0.66 0 1 C-8.79465929 2.40313653 -17.47468953 3.08814552 -26.37890625 2.9921875 C-27.11935181 2.9851178 -27.85979736 2.9780481 -28.62268066 2.97076416 C-32.36756571 2.9287106 -36.10944945 2.85682524 -39.85302734 2.75 C-47.46040447 2.59335345 -53.87740626 3.03008874 -60.98071289 6.12939453 C-63 7 -63 7 -65 7 C-63.68241372 23.76455173 -61.20335467 39.27006494 -55 55 C-58.96 55 -62.92 55 -67 55 C-67.66 49.39 -68.32 43.78 -69 38 C-68.01 38 -67.02 38 -66 38 C-66.2784375 36.7934375 -66.2784375 36.7934375 -66.5625 35.5625 C-66.706875 34.716875 -66.85125 33.87125 -67 33 C-66.505 32.505 -66.505 32.505 -66 32 C-65.90176063 30.33570949 -65.87026369 28.66718069 -65.875 27 C-65.87242187 26.0925 -65.86984375 25.185 -65.8671875 24.25 C-65.74826221 22.03033389 -65.74826221 22.03033389 -67 21 C-67.12583966 19.065581 -67.17578009 17.12597237 -67.1875 15.1875 C-67.20167969 14.12917969 -67.21585938 13.07085937 -67.23046875 11.98046875 C-66.99098128 8.88336804 -66.87595468 7.45159009 -65 5 C-59.07453418 0.7710018 -54.3325195 0.39958496 -47.16796875 0.390625 C-46.13617996 0.37408875 -45.10439117 0.35755249 -44.04133606 0.34051514 C-40.75666412 0.29217578 -37.47245027 0.27073741 -34.1875 0.25 C-31.99151312 0.22181517 -29.79554792 0.19188427 -27.59960938 0.16015625 C-18.39963995 0.03635033 -9.20076611 -0.01409659 0 0 Z " fill="#433372" transform="translate(282,138)"/>
<path d="M0 0 C0.66 0.33 1.32 0.66 2 1 C1.45859375 1.85658203 1.45859375 1.85658203 0.90625 2.73046875 C-3.86098644 11.0598902 -4.27942614 18.21699384 -2.21875 27.53125 C0.79037274 37.59031746 5.80278953 46.38677248 11.16137695 55.35864258 C12 57 12 57 12 59 C8.94689318 59.53429369 6.78315731 59.42421021 4.03125 57.93359375 C-2.63104888 52.82156057 -5.34875689 45.74283499 -8 38 C-8 37.34 -8 36.68 -8 36 C-7.34 36 -6.68 36 -6 36 C-5.58427734 36.95712891 -5.58427734 36.95712891 -5.16015625 37.93359375 C-4.79792969 38.75988281 -4.43570313 39.58617187 -4.0625 40.4375 C-3.70285156 41.26121094 -3.34320313 42.08492187 -2.97265625 42.93359375 C-2.16877677 44.94410117 -2.16877677 44.94410117 -1 46 C-0.34 44.02 0.32 42.04 1 40 C0.34 40 -0.32 40 -1 40 C-2.31626692 36.38026598 -3 33.90432869 -3 30 C-3.66 30 -4.32 30 -5 30 C-5 22.41 -5 14.82 -5 7 C-4.34 7 -3.68 7 -3 7 C-3.33 5.68 -3.66 4.36 -4 3 C-2.68 2.01 -1.36 1.02 0 0 Z " fill="#3B3172" transform="translate(190,162)"/>
<path d="M0 0 C0 0.33 0 0.66 0 1 C-8.79465929 2.40313653 -17.47468953 3.08814552 -26.37890625 2.9921875 C-27.11935181 2.9851178 -27.85979736 2.9780481 -28.62268066 2.97076416 C-32.36756571 2.9287106 -36.10944945 2.85682524 -39.85302734 2.75 C-47.46040447 2.59335345 -53.87740626 3.03008874 -60.98071289 6.12939453 C-63 7 -63 7 -65 7 C-64.34 14.92 -63.68 22.84 -63 31 C-63.66 31 -64.32 31 -65 31 C-65.09087891 30.04287109 -65.09087891 30.04287109 -65.18359375 29.06640625 C-65.26738281 28.24011719 -65.35117188 27.41382813 -65.4375 26.5625 C-65.51871094 25.73878906 -65.59992188 24.91507813 -65.68359375 24.06640625 C-65.78930815 22.01337975 -65.78930815 22.01337975 -67 21 C-67.12583966 19.065581 -67.17578009 17.12597237 -67.1875 15.1875 C-67.20167969 14.12917969 -67.21585938 13.07085937 -67.23046875 11.98046875 C-66.99098128 8.88336804 -66.87595468 7.45159009 -65 5 C-59.07453418 0.7710018 -54.3325195 0.39958496 -47.16796875 0.390625 C-46.13617996 0.37408875 -45.10439117 0.35755249 -44.04133606 0.34051514 C-40.75666412 0.29217578 -37.47245027 0.27073741 -34.1875 0.25 C-31.99151312 0.22181517 -29.79554792 0.19188427 -27.59960938 0.16015625 C-18.39963995 0.03635033 -9.20076611 -0.01409659 0 0 Z " fill="#5D3865" transform="translate(282,138)"/>
<path d="M0 0 C3.89608498 1.48904175 7.59097018 3.24378713 11.3125 5.125 C12.38113281 5.66382813 13.44976562 6.20265625 14.55078125 6.7578125 C15.76314453 7.37269531 15.76314453 7.37269531 17 8 C16.67 10.64 16.34 13.28 16 16 C16.99 16.66 17.98 17.32 19 18 C19.66 17.67 20.32 17.34 21 17 C21.33 17.99 21.66 18.98 22 20 C21.34 20.66 20.68 21.32 20 22 C12.62395194 15.53366454 5.66237205 9.09386122 0 1 C0 0.67 0 0.34 0 0 Z " fill="#512236" transform="translate(249,270)"/>
<path d="M0 0 C1.98 0 3.96 0 6 0 C8.25644714 4.65510733 8.65531825 9.23376465 9.125 14.3125 C9.20991699 15.1880957 9.29483398 16.06369141 9.38232422 16.96582031 C10.10547248 24.99465754 10.20253347 32.94366869 10 41 C9.67 41 9.34 41 9 41 C7.68 27.8 6.36 14.6 5 1 C-0.28 3.31 -5.56 5.62 -11 8 C-11.99 8 -12.98 8 -14 8 C-14 7.01 -14 6.02 -14 5 C-13.030625 4.71125 -12.06125 4.4225 -11.0625 4.125 C-7.89335797 3.35785318 -7.89335797 3.35785318 -7 1 C-4.69 1.33 -2.38 1.66 0 2 C0 1.34 0 0.68 0 0 Z " fill="#543465" transform="translate(349,119)"/>
<path d="M0 0 C0.66 0.33 1.32 0.66 2 1 C1.6390625 1.57105469 1.278125 2.14210937 0.90625 2.73046875 C-3.88743243 11.10609721 -4.34865302 18.3617986 -2.11328125 27.70703125 C0.31789448 35.54979414 3.59587048 42.4360726 7.7421875 49.48828125 C8.15726563 50.31714844 8.57234375 51.14601562 9 52 C8.67 52.66 8.34 53.32 8 54 C7.54625 53.195625 7.0925 52.39125 6.625 51.5625 C5.25274335 48.91143428 5.25274335 48.91143428 3 48 C2.3671875 46.15234375 2.3671875 46.15234375 1.875 43.9375 C1.62363281 42.83728516 1.62363281 42.83728516 1.3671875 41.71484375 C1.24601563 41.14894531 1.12484375 40.58304688 1 40 C0.34 40 -0.32 40 -1 40 C-2.31626692 36.38026598 -3 33.90432869 -3 30 C-3.66 30 -4.32 30 -5 30 C-5 22.41 -5 14.82 -5 7 C-4.34 7 -3.68 7 -3 7 C-3.33 5.68 -3.66 4.36 -4 3 C-2.68 2.01 -1.36 1.02 0 0 Z " fill="#5A3865" transform="translate(190,162)"/>
<path d="M0 0 C-2.61941217 1.74627478 -4.03824877 2.38722388 -7 3 C-7.02684312 5.81256281 -7.04676188 8.62487241 -7.0625 11.4375 C-7.07087891 12.23994141 -7.07925781 13.04238281 -7.08789062 13.86914062 C-7.0965143 15.91295221 -7.0522815 17.95683902 -7 20 C-6.67 20.33 -6.34 20.66 -6 21 C-5.92820036 22.51928038 -5.91607993 24.04167482 -5.9375 25.5625 C-5.94652344 26.38878906 -5.95554688 27.21507812 -5.96484375 28.06640625 C-5.97644531 28.70449219 -5.98804688 29.34257812 -6 30 C-5.34 30 -4.68 30 -4 30 C-3.63495397 31.58086048 -3.28339494 33.16483907 -2.9375 34.75 C-2.74027344 35.63171875 -2.54304687 36.5134375 -2.33984375 37.421875 C-2.00174128 39.98679028 -2.18841365 41.57091639 -3 44 C-7.73795275 29.91272827 -10.44166553 16.99209107 -10 2 C-3.375 -1.125 -3.375 -1.125 0 0 Z " fill="#E09092" transform="translate(227,143)"/>
<path d="M0 0 C0.33 0 0.66 0 1 0 C2.28811102 11.98403293 2.10026305 23.96380629 2 36 C2.66 36 3.32 36 4 36 C4.20625 35.443125 4.4125 34.88625 4.625 34.3125 C6.55000774 31.07498698 9.03850902 29.31768859 12 27 C10.80943402 31.36540858 9.69135527 34.25785037 6 37 C3.25 37.25 3.25 37.25 1 37 C-0.08806442 29.12652596 -0.11529603 21.37720997 -0.0625 13.4375 C-0.05798828 12.14263672 -0.05347656 10.84777344 -0.04882812 9.51367188 C-0.03712601 6.342399 -0.02073113 3.17122454 0 0 Z " fill="#3C4191" transform="translate(275,472)"/>
<path d="M0 0 C5.17935061 1.46828943 9.34373412 3.81491263 13.875 6.625 C14.90753906 7.25535156 14.90753906 7.25535156 15.9609375 7.8984375 C17.64391658 8.92692472 19.32242532 9.962721 21 11 C17.25 12.125 17.25 12.125 15 11 C13.68 12.32 12.36 13.64 11 15 C10.67 13.68 10.34 12.36 10 11 C10.66 11 11.32 11 12 11 C11.05275873 8.63189682 10.34708866 7.24792047 8.25 5.75 C5.42246362 4.80748787 2.96006696 4.8654515 0 5 C0 3.35 0 1.7 0 0 Z " fill="#718AE1" transform="translate(198,351)"/>
<path d="M0 0 C1.40454548 6.11980533 2.23268915 11.71739294 2 18 C1.67 18 1.34 18 1 18 C-0.485 10.575 -0.485 10.575 -2 3 C-8.85055904 5.26936137 -8.85055904 5.26936137 -15 9 C-17.33297433 9.04092937 -19.66705225 9.04241723 -22 9 C-19.16729926 6.16729926 -15.69847732 5.26623617 -12 3.9375 C-1.19784173 0 -1.19784173 0 0 0 Z " fill="#D88A90" transform="translate(354,120)"/>
<path d="M0 0 C0.33 0 0.66 0 1 0 C1.33 4.29 1.66 8.58 2 13 C7.445 12.505 7.445 12.505 13 12 C12.67 10.35 12.34 8.7 12 7 C14 8 14 8 15.125 11.0625 C15.41375 12.031875 15.7025 13.00125 16 14 C15 15 15 15 11.91015625 15.1328125 C10.64042969 15.13023437 9.37070313 15.12765625 8.0625 15.125 C6.16177734 15.12886719 6.16177734 15.12886719 4.22265625 15.1328125 C1 15 1 15 -1 14 C-0.67 9.38 -0.34 4.76 0 0 Z " fill="#DA8B8E" transform="translate(213,180)"/>
<path d="M0 0 C1.32 0 2.64 0 4 0 C4 0.66 4 1.32 4 2 C5.27875 2.0825 6.5575 2.165 7.875 2.25 C10.0546875 2.390625 10.0546875 2.390625 12 3 C12.6925093 4.32009586 13.35753463 5.65483813 14 7 C15.92691633 8.32380339 15.92691633 8.32380339 18.125 9.25 C18.84945312 9.58515625 19.57390625 9.9203125 20.3203125 10.265625 C20.87460938 10.50796875 21.42890625 10.7503125 22 11 C22 11.66 22 12.32 22 13 C23.98 13.66 25.96 14.32 28 15 C28 15.66 28 16.32 28 17 C24.2289116 15.60255691 20.91508869 13.86468346 17.48046875 11.77734375 C16.45888672 11.15666016 15.43730469 10.53597656 14.38476562 9.89648438 C13.32966797 9.25001953 12.27457031 8.60355469 11.1875 7.9375 C10.11306641 7.28716797 9.03863281 6.63683594 7.93164062 5.96679688 C2.03398957 2.3682936 2.03398957 2.3682936 0 1 C0 0.67 0 0.34 0 0 Z " fill="#E5DDF1" transform="translate(202,352)"/>
<path d="M0 0 C0.99 0.33 1.98 0.66 3 1 C3 1.66 3 2.32 3 3 C3.66 3 4.32 3 5 3 C5.66 5.31 6.32 7.62 7 10 C7.66 10 8.32 10 9 10 C9.33 9.34 9.66 8.68 10 8 C12.97 8.495 12.97 8.495 16 9 C13.63290296 11.74084921 11.35594194 12.7367158 8 14 C7.03980636 12.41779413 6.08192202 10.83418669 5.125 9.25 C4.59132813 8.36828125 4.05765625 7.4865625 3.5078125 6.578125 C2.24403334 4.41725907 1.08501165 2.25429605 0 0 Z " fill="#EADDEA" transform="translate(266,360)"/>
<path d="M0 0 C0.66 0.33 1.32 0.66 2 1 C1.68546875 1.46148437 1.3709375 1.92296875 1.046875 2.3984375 C-5.00176152 11.3484752 -5.00176152 11.3484752 -6.7265625 21.61328125 C-6.05564596 24.22890342 -6.05564596 24.22890342 -4 27 C-7.875 25.125 -7.875 25.125 -9 24 C-10.02742373 16.4704518 -8.48643041 11.94801539 -4 6 C-3.22263379 4.83767607 -2.45110596 3.67140986 -1.6875 2.5 C-1.130625 1.675 -0.57375 0.85 0 0 Z " fill="#030216" transform="translate(69,399)"/>
<path d="M0 0 C1.32 0.33 2.64 0.66 4 1 C2.68 1.33 1.36 1.66 0 2 C0.66 9.92 1.32 17.84 2 26 C1.34 26 0.68 26 0 26 C-0.09087891 25.04287109 -0.09087891 25.04287109 -0.18359375 24.06640625 C-0.26738281 23.24011719 -0.35117188 22.41382813 -0.4375 21.5625 C-0.51871094 20.73878906 -0.59992188 19.91507813 -0.68359375 19.06640625 C-0.78930815 17.01337975 -0.78930815 17.01337975 -2 16 C-2.12583966 14.065581 -2.17578009 12.12597237 -2.1875 10.1875 C-2.20167969 9.12917969 -2.21585938 8.07085937 -2.23046875 6.98046875 C-2.00615034 4.0795374 -1.50196021 2.45181647 0 0 Z " fill="#553262" transform="translate(217,143)"/>
<path d="M0 0 C0.66 0 1.32 0 2 0 C2.33 4.95 2.66 9.9 3 15 C5.31 15.33 7.62 15.66 10 16 C10.33 14.35 10.66 12.7 11 11 C13 14 13 14 14 17 C10.04 17 6.08 17 2 17 C1.34 11.39 0.68 5.78 0 0 Z " fill="#5B3661" transform="translate(213,176)"/>
<path d="M0 0 C0 5.38856801 -4.48749022 9.17302567 -8 13 C-10.55225801 15.19442454 -13.18440308 17.15788074 -16 19 C-16.66 18.67 -17.32 18.34 -18 18 C-17.43152344 17.5153125 -16.86304688 17.030625 -16.27734375 16.53125 C-11.62861378 12.49562465 -7.37788279 8.37280653 -3.41015625 3.6640625 C-2 2 -2 2 0 0 Z " fill="#07051A" transform="translate(447,426)"/>
<path d="M0 0 C0.66 0.33 1.32 0.66 2 1 C2 2.32 2 3.64 2 5 C-0.97 4.505 -0.97 4.505 -4 4 C-4 4.66 -4 5.32 -4 6 C-11.28571429 10.42857143 -11.28571429 10.42857143 -16 11 C-13.27587303 7.91460888 -9.90811219 5.88811092 -6.4375 3.75 C-5.84775391 3.37359375 -5.25800781 2.9971875 -4.65039062 2.609375 C-3.13894996 1.6739669 -1.57228969 0.82906354 0 0 Z " fill="#7488DB" transform="translate(312,351)"/>
<path d="M0 0 C0.66 0.33 1.32 0.66 2 1 C1.47599609 1.82177734 1.47599609 1.82177734 0.94140625 2.66015625 C-3.51458609 10.42342902 -3.87111662 17.21249683 -4 26 C-4.33 26 -4.66 26 -5 26 C-5 19.73 -5 13.46 -5 7 C-4.34 7 -3.68 7 -3 7 C-3.33 5.68 -3.66 4.36 -4 3 C-2.68 2.01 -1.36 1.02 0 0 Z " fill="#4F3366" transform="translate(190,162)"/>
<path d="M0 0 C1.32 1.65 2.64 3.3 4 5 C7.7910119 3.55049545 11.3874638 1.84827434 15 0 C15 0.66 15 1.32 15 2 C11.53846154 5 11.53846154 5 9 5 C9 5.66 9 6.32 9 7 C7.35 7 5.7 7 4 7 C4 7.99 4 8.98 4 10 C3.34 10 2.68 10 2 10 C0.39644899 6.49223216 -0.22036864 3.85645121 0 0 Z " fill="#768BDB" transform="translate(270,368)"/>
<path d="M0 0 C0.33 0.66 0.66 1.32 1 2 C1.99 2.66 2.98 3.32 4 4 C3.67 4.66 3.34 5.32 3 6 C3.99 6 4.98 6 6 6 C5.67 6.66 5.34 7.32 5 8 C0.38 6.02 -4.24 4.04 -9 2 C-9 1.67 -9 1.34 -9 1 C-5.846632 0.29925156 -3.27275026 0 0 0 Z " fill="#EE8F82" transform="translate(266,273)"/>
<path d="M0 0 C2.71781458 3.13365507 3.53259361 5.5427814 4.125 9.625 C4.2796875 10.67429688 4.434375 11.72359375 4.59375 12.8046875 C5.15208653 17.19621907 5.62913833 21.58869803 6 26 C4.20295888 23.30443832 3.60381795 21.97717099 2.9296875 18.9453125 C2.75566406 18.16542969 2.58164063 17.38554687 2.40234375 16.58203125 C2.22832031 15.77121094 2.05429688 14.96039063 1.875 14.125 C1.60236328 12.92037109 1.60236328 12.92037109 1.32421875 11.69140625 C0.45721246 7.73446779 -0.24763664 4.07774995 0 0 Z " fill="#352E5F" transform="translate(170,150)"/>
<path d="M0 0 C0.66 0 1.32 0 2 0 C1.45298368 7.44230094 0.45801591 14.68160944 -1 22 C-1.33 22 -1.66 22 -2 22 C-2.2226746 20.56465159 -2.42761906 19.12654475 -2.625 17.6875 C-2.74101562 16.88699219 -2.85703125 16.08648437 -2.9765625 15.26171875 C-3 13 -3 13 -1 10 C-0.54398739 7.49103314 -0.54398739 7.49103314 -0.375 4.8125 C-0.30023438 3.91144531 -0.22546875 3.01039063 -0.1484375 2.08203125 C-0.09945313 1.39496094 -0.05046875 0.70789063 0 0 Z " fill="#E59381" transform="translate(357,224)"/>
<path d="M0 0 C0.94875 0.825 1.8975 1.65 2.875 2.5 C7.48450321 6.45641138 12.24034752 10.22675437 17 14 C14 15 14 15 12.03515625 14.30859375 C9.70561273 12.81071068 8.20739769 11.18875293 6.4375 9.0625 C3.96809867 6.11693957 3.96809867 6.11693957 1.28515625 3.37109375 C0 2 0 2 0 0 Z " fill="#E88F88" transform="translate(256,280)"/>
<path d="M0 0 C2.62027436 2.62027436 3.48198873 5.57923297 4.6875 9 C4.92533203 9.64195312 5.16316406 10.28390625 5.40820312 10.9453125 C6.00166907 12.60910558 6.50730517 14.30363299 7 16 C6.67 16.66 6.34 17.32 6 18 C1.06213305 13.06213305 0.4376267 6.65494402 0 0 Z " fill="#3B3E8D" transform="translate(185,368)"/>
<path d="M0 0 C2.4375 0.375 2.4375 0.375 5 1 C5.33 1.66 5.66 2.32 6 3 C7.88013106 4.12224855 7.88013106 4.12224855 10.0625 5.125 C10.79597656 5.47820312 11.52945313 5.83140625 12.28515625 6.1953125 C13.13400391 6.59363281 13.13400391 6.59363281 14 7 C14 7.66 14 8.32 14 9 C14.66 9 15.32 9 16 9 C15.67 9.66 15.34 10.32 15 11 C13.2458877 9.92333797 11.49687413 8.83836661 9.75 7.75 C8.77546875 7.14671875 7.8009375 6.5434375 6.796875 5.921875 C4.20294755 4.13945558 2.13622381 2.29898372 0 0 Z " fill="#352E5E" transform="translate(108,464)"/>
<path d="M0 0 C-2.7899439 1.17094005 -5.58178597 2.33690927 -8.375 3.5 C-9.1690625 3.83386719 -9.963125 4.16773438 -10.78125 4.51171875 C-11.92207031 4.98544922 -11.92207031 4.98544922 -13.0859375 5.46875 C-13.7876709 5.76201172 -14.4894043 6.05527344 -15.21240234 6.35742188 C-17 7 -17 7 -19 7 C-19 6.34 -19 5.68 -19 5 C-13.5515635 1.98902193 -6.1920943 -2.06403143 0 0 Z " fill="#373061" transform="translate(361,490)"/>
<path d="M0 0 C0.66 0.99 1.32 1.98 2 3 C1.2575 3.144375 0.515 3.28875 -0.25 3.4375 C-2.52027739 3.90187492 -4.75759479 4.41863569 -7 5 C-7.33 6.32 -7.66 7.64 -8 9 C-9.32 7.68 -10.64 6.36 -12 5 C-8.04 3.35 -4.08 1.7 0 0 Z " fill="#677BC7" transform="translate(182,339)"/>
<path d="M0 0 C0.33 0 0.66 0 1 0 C1.98262143 7.20983676 2.6644984 12.55048282 -1 19 C-2.45839897 15.04294544 -1.67906093 11.30168612 -1.0625 7.25 C-0.96259766 6.55261719 -0.86269531 5.85523438 -0.75976562 5.13671875 C-0.51334127 3.42348274 -0.25759045 1.71159275 0 0 Z " fill="#371611" transform="translate(359,220)"/>
<path d="M0 0 C1.65 0 3.3 0 5 0 C0.98745115 3.51098025 -3.20983041 5.76537994 -8 8 C-7.67 6.68 -7.34 5.36 -7 4 C-5.02 3.67 -3.04 3.34 -1 3 C-0.67 2.01 -0.34 1.02 0 0 Z " fill="#E3DBF2" transform="translate(291,361)"/>
<path d="M0 0 C0.66 0 1.32 0 2 0 C3.32 2.64 4.64 5.28 6 8 C5.01 7.67 4.02 7.34 3 7 C3 6.34 3 5.68 3 5 C1.68 5 0.36 5 -1 5 C-1 5.66 -1 6.32 -1 7 C-1.66 6.67 -2.32 6.34 -3 6 C-2.01 4.02 -1.02 2.04 0 0 Z " fill="#3A2D45" transform="translate(255,343)"/>
<path d="M0 0 C1.5 1.375 1.5 1.375 3 3 C3 3.66 3 4.32 3 5 C0.25 5.25 0.25 5.25 -3 5 C-5.375 3 -5.375 3 -7 1 C-4.69 1.33 -2.38 1.66 0 2 C0 1.34 0 0.68 0 0 Z " fill="#3E2E5B" transform="translate(199,216)"/>
<path d="M0 0 C-0.99 0.495 -0.99 0.495 -2 1 C-1.67 2.32 -1.34 3.64 -1 5 C-3.97 4.01 -6.94 3.02 -10 2 C-6.3558226 -0.4294516 -4.28758728 -0.16179575 0 0 Z " fill="#36305D" transform="translate(167,85)"/>
<path d="M0 0 C0.66 0 1.32 0 2 0 C2.33 1.65 2.66 3.3 3 5 C3.66 5 4.32 5 5 5 C5.33 7.97 5.66 10.94 6 14 C2.7563715 10.292996 0 5.02493834 0 0 Z " fill="#687DDC" transform="translate(223,482)"/>
<path d="M0 0 C0.33 0 0.66 0 1 0 C1 4.62 1 9.24 1 14 C0.67 14 0.34 14 0 14 C-0.33 12.02 -0.66 10.04 -1 8 C-1.99 7.67 -2.98 7.34 -4 7 C-3.34 6.67 -2.68 6.34 -2 6 C-1.27306096 4.02111039 -0.60183749 2.02045442 0 0 Z " fill="#7589DD" transform="translate(241,368)"/>
<path d="M0 0 C4.10958767 1.45044271 7.43258745 3.51110752 11 6 C8 7 8 7 4.375 5.8125 C1 4 1 4 0.0625 1.8125 C0.041875 1.214375 0.02125 0.61625 0 0 Z " fill="#768DDA" transform="translate(187,344)"/>
<path d="M0 0 C0.99 0.33 1.98 0.66 3 1 C-0.96 2.98 -4.92 4.96 -9 7 C-9.66 6.34 -10.32 5.68 -11 5 C-10.37351562 4.72285156 -9.74703125 4.44570313 -9.1015625 4.16015625 C-8.28429687 3.79792969 -7.46703125 3.43570312 -6.625 3.0625 C-5.81289063 2.70285156 -5.00078125 2.34320313 -4.1640625 1.97265625 C-2.76316215 1.3430097 -1.37374716 0.68687358 0 0 Z " fill="#383063" transform="translate(372,482)"/>
<path d="M0 0 C3 4 3 4 2.85546875 6.796875 C2.63503906 7.77140625 2.41460937 8.7459375 2.1875 9.75 C1.97480469 10.73484375 1.76210937 11.7196875 1.54296875 12.734375 C1.36378906 13.48203125 1.18460938 14.2296875 1 15 C0.67 15 0.34 15 0 15 C0 10.05 0 5.1 0 0 Z " fill="#41408E" transform="translate(242,367)"/>
<path d="M0 0 C0.66 0 1.32 0 2 0 C5.34594658 5.18082051 6.56826496 8.84777564 7 15 C4.99615009 11.99422513 3.73880258 9.15022736 2.375 5.8125 C1.92898437 4.72582031 1.48296875 3.63914062 1.0234375 2.51953125 C0.68570313 1.68808594 0.34796875 0.85664063 0 0 Z " fill="#697FDE" transform="translate(181,358)"/>
<path d="M0 0 C2 2 2 2 2 6 C2.66 6 3.32 6 4 6 C4 6.66 4 7.32 4 8 C0.34683329 6.75023244 -0.78065836 6.32901247 -3 3 C-2.01 2.01 -1.02 1.02 0 0 Z " fill="#F49485" transform="translate(252,265)"/>
<path d="M0 0 C1.46300982 0.93018526 2.92025579 1.86944027 4.375 2.8125 C5.18710937 3.33457031 5.99921875 3.85664063 6.8359375 4.39453125 C9 6 9 6 11 9 C9.68 9 8.36 9 7 9 C7 8.34 7 7.68 7 7 C6.34 7 5.68 7 5 7 C5 6.34 5 5.68 5 5 C4.360625 4.731875 3.72125 4.46375 3.0625 4.1875 C1 3 1 3 0 0 Z " fill="#373161" transform="translate(422,381)"/>
<path d="M0 0 C2.97 0.495 2.97 0.495 6 1 C3.22719294 4.08089673 0.93673644 5.68775452 -3 7 C-3 6.34 -3 5.68 -3 5 C-2.34 4.67 -1.68 4.34 -1 4 C-0.34786708 1.97536745 -0.34786708 1.97536745 0 0 Z " fill="#E7DEEB" transform="translate(299,354)"/>
<path d="M0 0 C0 3.36403475 -0.61880053 4.40092917 -2.375 7.1875 C-2.81585938 7.90292969 -3.25671875 8.61835938 -3.7109375 9.35546875 C-4.13632812 9.89816406 -4.56171875 10.44085938 -5 11 C-5.66 11 -6.32 11 -7 11 C-5.5140084 6.40693504 -3.14985318 3.56430755 0 0 Z " fill="#373A89" transform="translate(345,346)"/>
<path d="M0 0 C0 0.99 0 1.98 0 3 C-2.8125 4.5625 -2.8125 4.5625 -6 6 C-6.99 5.67 -7.98 5.34 -9 5 C-7.87926138 4.16094435 -6.75325453 3.32892169 -5.625 2.5 C-4.99851562 2.0359375 -4.37203125 1.571875 -3.7265625 1.09375 C-2 0 -2 0 0 0 Z " fill="#060418" transform="translate(405,465)"/>
<path d="M0 0 C0.99 0.33 1.98 0.66 3 1 C0.03 3.64 -2.94 6.28 -6 9 C-6 6 -6 6 -4 3 C-2.0625 1.25 -2.0625 1.25 0 0 Z " fill="#363062" transform="translate(433,438)"/>
<path d="M0 0 C1.29325654 4.36963952 0.86341934 7.53900006 0 12 C-0.99 12.66 -1.98 13.32 -3 14 C-2.28547412 9.23649415 -1.20465156 4.65798604 0 0 Z " fill="#383D8F" transform="translate(316,428)"/>
<path d="M0 0 C-0.66 1.65 -1.32 3.3 -2 5 C-4.31 5 -6.62 5 -9 5 C-2.87096774 0 -2.87096774 0 0 0 Z " fill="#738AE0" transform="translate(329,342)"/>
<path d="M0 0 C-4.10457614 2.98514628 -6.97745369 3.2954439 -12 3 C-8.52582963 0.68388642 -4.04642977 -2.02321489 0 0 Z " fill="#09061E" transform="translate(346,497)"/>
<path d="M0 0 C0.66 0 1.32 0 2 0 C3.32 3.3 4.64 6.6 6 10 C5.34 10.66 4.68 11.32 4 12 C3.3291288 10.3767313 2.66342971 8.75132422 2 7.125 C1.62875 6.22007812 1.2575 5.31515625 0.875 4.3828125 C0 2 0 2 0 0 Z " fill="#363163" transform="translate(182,198)"/>
<path d="M0 0 C0 0.33 0 0.66 0 1 C-3.96 1.66 -7.92 2.32 -12 3 C-7.72115334 -1.27884666 -5.68536807 -1.13707361 0 0 Z " fill="#09071B" transform="translate(336,45)"/>
<path d="M0 0 C0.99 0.33 1.98 0.66 3 1 C0.64722731 3.72426311 -1.62496331 4.8141763 -5 6 C-4.67 5.01 -4.34 4.02 -4 3 C-3.34 3 -2.68 3 -2 3 C-2 2.34 -2 1.68 -2 1 C-1.34 0.67 -0.68 0.34 0 0 Z " fill="#383064" transform="translate(381,476)"/>
<path d="M0 0 C1.46726798 3.81489674 0.43336419 6.29011622 -1 10 C-1.33 10 -1.66 10 -2 10 C-2.1953125 3.9453125 -2.1953125 3.9453125 -2 2 C-1.34 1.34 -0.68 0.68 0 0 Z " fill="#6982E3" transform="translate(317,420)"/>
<path d="M0 0 C0.66 0.33 1.32 0.66 2 1 C-0.33343353 4.50015029 -2.16917814 5.40382422 -6 7 C-6.66 6.67 -7.32 6.34 -8 6 C-5.36 4.02 -2.72 2.04 0 0 Z " fill="#372F60" transform="translate(94,378)"/>
<path d="M0 0 C-2.55068845 2.35448165 -3.71017358 2.98327924 -7.25 3.1875 C-8.1575 3.125625 -9.065 3.06375 -10 3 C-6.86618053 -0.60389239 -4.59270471 -1.53090157 0 0 Z " fill="#6D87E5" transform="translate(301,362)"/>
<path d="M0 0 C0.99 0 1.98 0 3 0 C2.01 3.3 1.02 6.6 0 10 C-0.33 10 -0.66 10 -1 10 C-0.67 6.7 -0.34 3.4 0 0 Z " fill="#E38E81" transform="translate(350,258)"/>
<path d="M0 0 C2.12508244 3.18762365 2.5020163 5.26512223 3 9 C2.01 9.495 2.01 9.495 1 10 C-0.60725635 6.78548731 -0.05748185 3.56387464 0 0 Z " fill="#3D4294" transform="translate(205,429)"/>
<path d="M0 0 C0.33 0 0.66 0 1 0 C1.33 2.31 1.66 4.62 2 7 C0.68 7.99 -0.64 8.98 -2 10 C-1.34 6.7 -0.68 3.4 0 0 Z " fill="#240D09" transform="translate(354,252)"/>
<path d="M0 0 C0.33 0 0.66 0 1 0 C1.12375 0.78375 1.2475 1.5675 1.375 2.375 C1.79117993 5.14057822 1.79117993 5.14057822 4 7 C2.68 7.99 1.36 8.98 0 10 C0 6.7 0 3.4 0 0 Z " fill="#542F59" transform="translate(359,160)"/>
</svg>
